<?xml version="1.0" encoding="UTF-8" standalone="no"?>
<svg
   xmlns:dc="http://purl.org/dc/elements/1.1/"
   xmlns:cc="http://creativecommons.org/ns#"
   xmlns:rdf="http://www.w3.org/1999/02/22-rdf-syntax-ns#"
   xmlns:svg="http://www.w3.org/2000/svg"
   xmlns="http://www.w3.org/2000/svg"
   viewBox="0 0 533.33331 533.33331"
   height="533.33331"
   width="533.33331"
   xml:space="preserve"
   id="svg2"
   version="1.1"><metadata
     id="metadata8"><rdf:RDF><cc:Work
         rdf:about=""><dc:format>image/svg+xml</dc:format><dc:type
           rdf:resource="http://purl.org/dc/dcmitype/StillImage" /></cc:Work></rdf:RDF></metadata><defs
     id="defs6"><clipPath
       id="clipPath18"
       clipPathUnits="userSpaceOnUse"><path
         id="path16"
         d="M 0,400 H 400 V 0 H 0 Z" /></clipPath></defs><g
     transform="matrix(1.3333333,0,0,-1.3333333,0,533.33333)"
     id="g10"><g
       id="g12"><g
         clip-path="url(#clipPath18)"
         id="g14"><g
           transform="translate(35.8614,250.2483)"
           id="g20"><path
             id="path22"
             style="fill:#ffffff;fill-opacity:1;fill-rule:nonzero;stroke:none"
             d="m 0,0 h 16.978 v -16.979 c 2.897,10.089 8.39,17.678 17.878,17.678 h 0.2 V -15.68 c -12.784,0 -18.078,-3.595 -18.078,-19.176 v -16.08 l -16.978,0 z" /></g><g
           transform="translate(94.2841,210.0989)"
           id="g24"><path
             id="path26"
             style="fill:#ffffff;fill-opacity:1;fill-rule:nonzero;stroke:none"
             d="M 0,0 C 3.896,0 8.79,2.398 9.388,10.886 7.791,9.688 5.594,8.989 2.297,8.589 -2.896,7.99 -4.794,6.592 -4.794,3.695 -4.794,1.299 -2.896,0 0,0 m 3.196,27.865 c -4.095,0 -6.691,-1.998 -8.689,-5.892 l -15.281,3.396 c 3.096,8.388 11.985,15.479 25.169,15.479 13.083,0 21.972,-6.191 21.972,-18.676 V -10.786 H 9.388 v 8.388 c -3.695,-5.791 -9.687,-9.087 -17.178,-9.087 -7.79,0 -14.981,4.294 -14.981,12.784 0,9.188 5.593,13.383 20.474,14.881 8.989,0.899 11.685,2.197 11.685,6.591 0,3.197 -2.496,5.094 -6.192,5.094" /></g><g
           transform="translate(152.8056,211.3979)"
           id="g28"><path
             id="path30"
             style="fill:#ffffff;fill-opacity:1;fill-rule:nonzero;stroke:none"
             d="m 0,0 c 6.592,0 10.487,4.894 10.487,12.883 0,8.49 -3.895,13.882 -10.487,13.882 -5.892,0 -9.588,-4.992 -9.588,-12.983 C -9.588,5.293 -5.892,0 0,0 M 10.487,-1.898 C 7.99,-8.091 3.396,-12.784 -4.794,-12.784 c -12.484,0 -22.272,10.187 -22.272,26.566 0,16.28 9.788,25.767 21.273,25.767 7.991,0 13.384,-4.693 16.28,-11.884 V 38.85 H 27.466 V -32.06 H 10.487 Z" /></g><g
           transform="translate(355.7585,199.013)"
           id="g32"><path
             id="path34"
             style="fill:#ffffff;fill-opacity:1;fill-rule:nonzero;stroke:none"
             d="m 0,0 h -16.978 v 11.085 c -3.496,-6.392 -9.588,-11.784 -17.878,-11.784 -11.485,0 -14.481,7.989 -14.481,19.576 V 50.936 H -32.36 V 21.873 c 0,-7.392 1.799,-10.388 6.693,-10.388 4.894,0 8.689,4.994 8.689,12.384 V 50.936 H 0 Z" /></g><g
           transform="translate(370.5918,212.754)"
           id="g36"><path
             id="path38"
             style="fill:#ffffff;fill-opacity:1;fill-rule:nonzero;stroke:none"
             d="M 0,0 C -0.496,0.277 -1.291,0.416 -2.383,0.416 H -4.065 V -3.63 h 1.779 c 0.833,0 1.459,0.083 1.876,0.249 0.769,0.305 1.153,0.887 1.153,1.746 C 0.743,-0.823 0.496,-0.277 0,0 m -2.125,1.76 c 1.386,0 2.402,-0.135 3.048,-0.402 1.155,-0.481 1.732,-1.425 1.732,-2.831 0,-0.997 -0.363,-1.734 -1.089,-2.205 -0.386,-0.249 -0.925,-0.429 -1.614,-0.54 0.873,-0.139 1.512,-0.503 1.917,-1.095 0.403,-0.59 0.606,-1.166 0.606,-1.73 v -0.816 c 0,-0.257 0.009,-0.534 0.028,-0.831 C 2.522,-8.983 2.554,-9.177 2.6,-9.27 L 2.669,-9.408 H 0.826 C 0.818,-9.371 0.808,-9.335 0.799,-9.298 0.79,-9.26 0.78,-9.22 0.771,-9.173 l -0.042,0.358 v 0.885 c 0,1.289 -0.351,2.14 -1.053,2.554 -0.415,0.241 -1.145,0.36 -2.189,0.36 H -4.065 V -9.408 H -6.032 V 1.76 Z m -5.986,0.568 c -1.699,-1.71 -2.549,-3.773 -2.549,-6.194 0,-2.439 0.845,-4.517 2.535,-6.235 1.7,-1.718 3.764,-2.578 6.194,-2.578 2.43,0 4.494,0.86 6.194,2.578 1.699,1.718 2.549,3.796 2.549,6.235 0,2.421 -0.85,4.484 -2.549,6.194 -1.709,1.718 -3.774,2.577 -6.194,2.577 -2.411,0 -4.471,-0.859 -6.18,-2.577 M 5.274,-11.071 c -1.986,-1.996 -4.387,-2.993 -7.205,-2.993 -2.818,0 -5.215,0.997 -7.191,2.993 -1.968,1.985 -2.952,4.392 -2.952,7.219 0,2.799 0.993,5.19 2.979,7.178 1.977,1.975 4.365,2.965 7.164,2.965 2.818,0 5.219,-0.99 7.205,-2.965 1.987,-1.976 2.979,-4.371 2.979,-7.178 0,-2.819 -0.992,-5.224 -2.979,-7.219" /></g><g
           transform="translate(301.2927,212.6177)"
           id="g40"><path
             id="path42"
             style="fill:#ffffff;fill-opacity:1;fill-rule:nonzero;stroke:none"
             d="m 0,0 c 0.002,-3.481 0.016,-6.962 -0.003,-10.442 -0.016,-3.081 -1.486,-3.911 -4.139,-2.288 -12.117,7.415 -24.207,14.876 -36.352,22.243 -0.943,0.572 -2.535,1.083 -3.292,0.663 -0.753,-0.418 -1.135,-2.043 -1.155,-3.147 -0.107,-5.727 0.011,-11.458 -0.094,-17.185 -0.019,-1.034 -0.438,-2.521 -1.169,-2.949 -0.705,-0.413 -2.227,-0.011 -3.094,0.519 -11.994,7.335 -23.924,14.777 -35.921,22.109 -0.927,0.567 -2.548,1.035 -3.281,0.598 -0.755,-0.45 -1.113,-2.057 -1.134,-3.167 -0.107,-5.727 -0.039,-11.457 -0.056,-17.185 -0.008,-2.594 -0.617,-3.219 -3.202,-3.228 -6.671,-0.022 -13.343,-0.024 -20.014,0 -2.335,0.008 -3.001,0.669 -3.008,2.964 -0.022,6.744 0.014,13.488 -0.019,20.232 -0.01,2.012 0.871,2.895 2.889,2.884 6.526,-0.037 13.053,-0.015 19.58,-0.004 2.86,0.004 3.376,0.54 3.377,3.468 0.002,6.236 0,24.037 0,24.037 0,0 28.368,-17.187 40.115,-24.373 0.944,-0.578 2.632,-1.163 3.265,-0.723 0.814,0.566 1.238,2.157 1.262,3.318 0.121,5.726 0,21.778 0,21.778 0,0 30.221,-18.185 43.225,-26.093 1.624,-0.988 2.33,-2.111 2.255,-4.023 C -0.096,6.675 -0.002,3.336 0,0" /></g><g
           transform="translate(33.5001,166.6036)"
           id="g44"><path
             id="path46"
             style="fill:#ffffff;fill-opacity:1;fill-rule:nonzero;stroke:none"
             d="M 0,0 H 10.176 V -1.797 H 1.989 V -6.252 H 9.188 V -7.999 H 1.989 V -14.67 H 0 Z" /></g><g
           transform="translate(56.5221,155.1564)"
           id="g48"><path
             id="path50"
             style="fill:#ffffff;fill-opacity:1;fill-rule:nonzero;stroke:none"
             d="m 0,0 c 0.784,1.255 1.174,2.7 1.174,4.332 0,1.726 -0.451,3.115 -1.353,4.168 -0.903,1.052 -2.136,1.579 -3.699,1.579 -1.518,0 -2.757,-0.522 -3.716,-1.564 -0.959,-1.043 -1.438,-2.58 -1.438,-4.613 0,-1.626 0.411,-2.996 1.234,-4.112 0.821,-1.116 2.155,-1.675 3.999,-1.675 1.751,0 3.018,0.629 3.799,1.885 M 1.753,9.35 C 2.725,8.052 3.211,6.39 3.211,4.367 3.211,2.177 2.655,0.356 1.543,-1.095 0.239,-2.8 -1.623,-3.652 -4.039,-3.652 c -2.257,0 -4.031,0.745 -5.322,2.237 -1.152,1.438 -1.727,3.256 -1.727,5.453 0,1.983 0.491,3.681 1.477,5.093 1.265,1.81 3.135,2.715 5.612,2.715 2.59,0 4.507,-0.832 5.752,-2.496" /></g><g
           transform="translate(69.1836,159.8831)"
           id="g52"><path
             id="path54"
             style="fill:#ffffff;fill-opacity:1;fill-rule:nonzero;stroke:none"
             d="m 0,0 c 0.906,0 1.623,0.186 2.151,0.559 0.527,0.373 0.791,1.045 0.791,2.017 0,1.045 -0.369,1.758 -1.108,2.137 -0.394,0.2 -0.922,0.3 -1.582,0.3 h -4.72 V 0 Z M -6.455,6.72 H 0.213 C 1.311,6.72 2.217,6.557 2.929,6.231 4.283,5.605 4.959,4.45 4.959,2.766 4.959,1.887 4.777,1.168 4.415,0.609 4.051,0.049 3.544,-0.4 2.891,-0.739 3.465,-0.973 3.895,-1.278 4.185,-1.657 4.475,-2.037 4.636,-2.653 4.67,-3.505 l 0.07,-1.967 c 0.02,-0.56 0.066,-0.976 0.14,-1.248 0.119,-0.467 0.332,-0.766 0.638,-0.9 V -7.949 H 3.082 c -0.067,0.126 -0.121,0.29 -0.16,0.489 -0.04,0.2 -0.074,0.586 -0.101,1.158 l -0.119,2.447 c -0.045,0.959 -0.391,1.601 -1.038,1.927 -0.368,0.18 -0.947,0.271 -1.736,0.271 h -4.396 v -6.292 h -1.987 z" /></g><g
           transform="translate(89.9394,153.6315)"
           id="g56"><path
             id="path58"
             style="fill:#ffffff;fill-opacity:1;fill-rule:nonzero;stroke:none"
             d="m 0,0 c 1.23,0 2.106,0.353 2.63,1.059 0.33,0.445 0.495,0.985 0.495,1.617 0,1.066 -0.48,1.792 -1.442,2.177 -0.511,0.207 -1.185,0.31 -2.026,0.31 H -4.325 V 0 Z m -0.672,6.771 c 0.848,0 1.507,0.116 1.978,0.349 0.74,0.367 1.11,1.026 1.11,1.978 0,0.958 -0.393,1.604 -1.18,1.937 -0.444,0.186 -1.104,0.28 -1.978,0.28 H -4.325 V 6.771 Z m -5.6,6.201 H 0.07 c 1.729,0 2.959,-0.513 3.689,-1.538 C 4.189,10.828 4.403,10.129 4.403,9.337 4.403,8.412 4.14,7.653 3.614,7.06 3.342,6.747 2.949,6.461 2.436,6.201 3.188,5.915 3.751,5.593 4.123,5.233 4.782,4.594 5.112,3.712 5.112,2.586 5.112,1.641 4.814,0.786 4.218,0.02 3.327,-1.125 1.91,-1.698 -0.033,-1.698 h -6.239 z" /></g><g
           transform="translate(99.8936,166.6036)"
           id="g60"><path
             id="path62"
             style="fill:#ffffff;fill-opacity:1;fill-rule:nonzero;stroke:none"
             d="m 0,0 v -9.068 c 0,-1.065 0.202,-1.95 0.604,-2.656 0.598,-1.065 1.604,-1.598 3.02,-1.598 1.697,0 2.852,0.576 3.463,1.728 0.328,0.626 0.492,1.468 0.492,2.526 V 0 h 2.007 v -8.238 c 0,-1.805 -0.243,-3.193 -0.73,-4.164 -0.897,-1.772 -2.586,-2.657 -5.071,-2.657 -2.485,0 -4.173,0.885 -5.061,2.657 -0.487,0.971 -0.731,2.359 -0.731,4.164 l 0,8.238 z" /></g><path
           id="path64"
           style="fill:#ffffff;fill-opacity:1;fill-rule:nonzero;stroke:none"
           d="m 113.354,166.604 h 2.007 v -14.67 h -2.007 z" /><g
           transform="translate(118.9754,166.6036)"
           id="g66"><path
             id="path68"
             style="fill:#ffffff;fill-opacity:1;fill-rule:nonzero;stroke:none"
             d="m 0,0 h 1.988 v -12.922 h 7.36 V -14.67 H 0 Z" /></g><g
           transform="translate(136.3021,153.6315)"
           id="g70"><path
             id="path72"
             style="fill:#ffffff;fill-opacity:1;fill-rule:nonzero;stroke:none"
             d="M 0,0 C 0.657,0 1.197,0.07 1.62,0.21 2.375,0.47 2.994,0.969 3.475,1.708 3.86,2.3 4.137,3.059 4.306,3.984 4.403,4.537 4.452,5.05 4.452,5.523 4.452,7.339 4.098,8.751 3.393,9.757 2.687,10.761 1.548,11.264 -0.02,11.264 H -3.467 V 0 Z M -5.474,12.972 H 0.39 c 1.99,0 3.534,-0.716 4.632,-2.147 C 6.001,9.534 6.49,7.879 6.49,5.862 6.49,4.304 6.2,2.897 5.622,1.638 4.604,-0.586 2.853,-1.698 0.37,-1.698 h -5.844 z" /></g><path
           id="path74"
           style="fill:#ffffff;fill-opacity:1;fill-rule:nonzero;stroke:none"
           d="m 146.346,166.604 h 2.007 v -14.67 h -2.007 z" /><g
           transform="translate(151.966,166.6036)"
           id="g76"><path
             id="path78"
             style="fill:#ffffff;fill-opacity:1;fill-rule:nonzero;stroke:none"
             d="M 0,0 H 2.342 L 9.657,-11.852 V 0 h 1.898 V -14.67 H 9.322 L 1.898,-2.832 V -14.67 H 0 Z" /></g><g
           transform="translate(176.8902,166.1841)"
           id="g80"><path
             id="path82"
             style="fill:#ffffff;fill-opacity:1;fill-rule:nonzero;stroke:none"
             d="M 0,0 C 1.436,-0.766 2.316,-2.107 2.637,-4.024 H 0.67 c -0.234,1.071 -0.72,1.852 -1.458,2.342 -0.736,0.488 -1.665,0.733 -2.786,0.733 -1.331,0 -2.449,-0.509 -3.359,-1.528 -0.91,-1.018 -1.365,-2.536 -1.365,-4.553 0,-1.745 0.376,-3.164 1.126,-4.259 0.75,-1.096 1.973,-1.643 3.67,-1.643 1.297,0 2.373,0.385 3.224,1.154 0.852,0.769 1.288,2.012 1.308,3.729 h -4.594 v 1.648 H 2.877 V -14.25 H 1.599 l -0.48,1.888 c -0.66,-0.74 -1.246,-1.253 -1.759,-1.539 -0.857,-0.492 -1.947,-0.739 -3.27,-0.739 -1.71,0 -3.18,0.563 -4.41,1.688 -1.343,1.411 -2.015,3.348 -2.015,5.812 0,2.456 0.656,4.41 1.969,5.862 1.247,1.385 2.861,2.077 4.842,2.077 C -2.165,0.799 -0.991,0.533 0,0" /></g><g
           transform="translate(195.061,161.9962)"
           id="g84"><path
             id="path86"
             style="fill:#ffffff;fill-opacity:1;fill-rule:nonzero;stroke:none"
             d="M 0,0 C 0.389,0.451 0.582,0.953 0.582,1.505 0.582,1.937 0.44,2.308 0.156,2.621 -0.13,2.934 -0.512,3.09 -0.995,3.09 -1.729,3.09 -2.239,2.844 -2.524,2.352 -2.669,2.1 -2.743,1.824 -2.743,1.525 c 0,-0.405 0.112,-0.794 0.335,-1.166 0.224,-0.372 0.596,-0.855 1.117,-1.446 C -0.666,-0.642 -0.236,-0.28 0,0 m 0.142,-8.314 c 0.53,0.339 0.938,0.718 1.223,1.138 l -3.304,4.044 c -0.933,-0.626 -1.542,-1.105 -1.826,-1.437 -0.436,-0.5 -0.655,-1.109 -0.655,-1.829 0,-0.778 0.282,-1.377 0.85,-1.797 0.566,-0.419 1.17,-0.629 1.814,-0.629 0.735,0 1.367,0.169 1.898,0.51 m -4.318,8.208 c -0.209,0.485 -0.314,0.955 -0.314,1.408 0,0.946 0.318,1.729 0.955,2.351 0.637,0.623 1.491,0.935 2.559,0.935 1.015,0 1.809,-0.29 2.381,-0.869 C 1.974,3.14 2.26,2.448 2.26,1.643 2.26,0.704 1.966,-0.117 1.376,-0.823 1.03,-1.235 0.454,-1.711 -0.354,-2.25 l 2.663,-3.199 c 0.177,0.533 0.301,0.931 0.368,1.194 0.07,0.262 0.14,0.631 0.212,1.103 H 4.597 C 4.485,-4.09 4.259,-4.991 3.922,-5.853 3.583,-6.715 3.415,-7.063 3.415,-6.895 l 2.6,-3.167 H 3.702 L 2.33,-8.384 C 1.785,-8.977 1.287,-9.41 0.837,-9.683 c -0.79,-0.479 -1.699,-0.719 -2.727,-0.719 -1.519,0 -2.624,0.412 -3.313,1.233 -0.691,0.823 -1.034,1.749 -1.034,2.782 0,1.111 0.335,2.04 1.005,2.786 0.412,0.453 1.178,1.018 2.3,1.698 -0.619,0.711 -1.034,1.311 -1.244,1.797" /></g><g
           transform="translate(219.9667,165.5353)"
           id="g88"><path
             id="path90"
             style="fill:#ffffff;fill-opacity:1;fill-rule:nonzero;stroke:none"
             d="m 0,0 c 1.014,-0.979 1.577,-2.09 1.688,-3.336 h -1.937 c -0.216,0.945 -0.646,1.695 -1.289,2.247 -0.644,0.553 -1.549,0.829 -2.713,0.829 -1.419,0 -2.564,-0.508 -3.436,-1.524 -0.874,-1.016 -1.31,-2.574 -1.31,-4.672 0,-1.719 0.395,-3.114 1.182,-4.183 0.788,-1.069 1.964,-1.604 3.527,-1.604 1.439,0 2.534,0.562 3.287,1.687 0.398,0.592 0.696,1.372 0.892,2.337 h 1.937 c -0.17,-1.544 -0.736,-2.84 -1.697,-3.884 -1.152,-1.259 -2.706,-1.888 -4.659,-1.888 -1.686,0 -3.1,0.516 -4.245,1.549 -1.507,1.366 -2.261,3.474 -2.261,6.325 0,2.166 0.567,3.94 1.698,5.326 1.223,1.506 2.912,2.258 5.063,2.258 C -2.437,1.467 -1.012,0.979 0,0" /></g><g
           transform="translate(235.0806,155.1564)"
           id="g92"><path
             id="path94"
             style="fill:#ffffff;fill-opacity:1;fill-rule:nonzero;stroke:none"
             d="m 0,0 c 0.782,1.255 1.173,2.7 1.173,4.332 0,1.726 -0.45,3.115 -1.353,4.168 -0.902,1.052 -2.135,1.579 -3.699,1.579 -1.518,0 -2.756,-0.522 -3.715,-1.564 -0.959,-1.043 -1.439,-2.58 -1.439,-4.613 0,-1.626 0.411,-2.996 1.234,-4.112 0.822,-1.116 2.155,-1.675 4,-1.675 1.75,0 3.017,0.629 3.799,1.885 M 1.753,9.35 C 2.725,8.052 3.211,6.39 3.211,4.367 3.211,2.177 2.655,0.356 1.543,-1.095 0.238,-2.8 -1.623,-3.652 -4.04,-3.652 c -2.256,0 -4.031,0.745 -5.322,2.237 -1.152,1.438 -1.727,3.256 -1.727,5.453 0,1.983 0.492,3.681 1.478,5.093 1.265,1.81 3.135,2.715 5.612,2.715 2.589,0 4.507,-0.832 5.752,-2.496" /></g><g
           transform="translate(241.0474,166.6036)"
           id="g96"><path
             id="path98"
             style="fill:#ffffff;fill-opacity:1;fill-rule:nonzero;stroke:none"
             d="M 0,0 H 2.34 L 9.656,-11.852 V 0 h 1.897 V -14.67 H 9.321 L 1.897,-2.832 V -14.67 H 0 Z" /></g><g
           transform="translate(257.5031,156.6679)"
           id="g100"><path
             id="path102"
             style="fill:#ffffff;fill-opacity:1;fill-rule:nonzero;stroke:none"
             d="m 0,0 c 0.045,-0.833 0.234,-1.508 0.568,-2.028 0.635,-0.971 1.754,-1.458 3.357,-1.458 0.718,0 1.372,0.106 1.963,0.32 C 7.029,-2.754 7.6,-2.014 7.6,-0.949 7.6,-0.15 7.358,0.418 6.875,0.759 6.383,1.091 5.616,1.381 4.572,1.628 L 2.647,2.077 c -1.259,0.292 -2.148,0.615 -2.671,0.969 -0.902,0.611 -1.354,1.528 -1.354,2.745 0,1.318 0.444,2.401 1.331,3.246 0.888,0.845 2.145,1.268 3.771,1.268 1.496,0 2.768,-0.371 3.814,-1.114 1.046,-0.742 1.57,-1.929 1.57,-3.559 H 7.241 C 7.144,6.417 6.941,7.02 6.628,7.439 6.046,8.204 5.061,8.588 3.669,8.588 2.546,8.588 1.738,8.341 1.246,7.848 0.755,7.356 0.51,6.783 0.51,6.131 0.51,5.412 0.8,4.886 1.38,4.553 1.76,4.34 2.622,4.074 3.964,3.754 L 5.958,3.285 C 6.918,3.059 7.66,2.748 8.183,2.357 9.085,1.671 9.537,0.676 9.537,-0.629 9.537,-2.254 8.96,-3.416 7.808,-4.115 6.656,-4.814 5.316,-5.164 3.791,-5.164 c -1.78,0 -3.172,0.467 -4.178,1.399 -1.007,0.925 -1.501,2.179 -1.48,3.765 z" /></g><g
           transform="translate(280.8993,166.6036)"
           id="g104"><path
             id="path106"
             style="fill:#ffffff;fill-opacity:1;fill-rule:nonzero;stroke:none"
             d="M 0,0 V -1.748 H -4.943 V -14.67 H -6.95 v 12.922 h -4.942 V 0 Z" /></g><g
           transform="translate(289.8099,159.8831)"
           id="g108"><path
             id="path110"
             style="fill:#ffffff;fill-opacity:1;fill-rule:nonzero;stroke:none"
             d="m 0,0 c 0.907,0 1.623,0.186 2.151,0.559 0.528,0.373 0.792,1.045 0.792,2.017 0,1.045 -0.369,1.758 -1.108,2.137 -0.394,0.2 -0.922,0.3 -1.582,0.3 h -4.72 L -4.467,0 Z M -6.455,6.72 H 0.214 C 1.312,6.72 2.217,6.557 2.93,6.231 4.284,5.605 4.96,4.45 4.96,2.766 4.96,1.887 4.778,1.168 4.415,0.609 4.052,0.049 3.545,-0.4 2.892,-0.739 3.465,-0.973 3.896,-1.278 4.186,-1.657 4.475,-2.037 4.637,-2.653 4.67,-3.505 l 0.07,-1.967 c 0.021,-0.56 0.066,-0.976 0.14,-1.248 0.119,-0.467 0.333,-0.766 0.64,-0.9 V -7.949 H 3.083 c -0.067,0.126 -0.121,0.29 -0.161,0.489 -0.039,0.2 -0.073,0.586 -0.1,1.158 l -0.12,2.447 c -0.045,0.959 -0.391,1.601 -1.037,1.927 -0.369,0.18 -0.947,0.271 -1.737,0.271 h -4.395 v -6.292 h -1.988 z" /></g><g
           transform="translate(300.4202,166.6036)"
           id="g112"><path
             id="path114"
             style="fill:#ffffff;fill-opacity:1;fill-rule:nonzero;stroke:none"
             d="m 0,0 v -9.068 c 0,-1.065 0.202,-1.95 0.604,-2.656 0.598,-1.065 1.604,-1.598 3.02,-1.598 1.697,0 2.852,0.576 3.463,1.728 0.328,0.626 0.492,1.468 0.492,2.526 V 0 h 2.007 v -8.238 c 0,-1.805 -0.243,-3.193 -0.73,-4.164 -0.897,-1.772 -2.586,-2.657 -5.071,-2.657 -2.485,0 -4.173,0.885 -5.061,2.657 -0.487,0.971 -0.731,2.359 -0.731,4.164 l 0,8.238 z" /></g><g
           transform="translate(323.8072,165.5353)"
           id="g116"><path
             id="path118"
             style="fill:#ffffff;fill-opacity:1;fill-rule:nonzero;stroke:none"
             d="M 0,0 C 1.013,-0.979 1.575,-2.09 1.687,-3.336 H -0.25 c -0.216,0.945 -0.646,1.695 -1.289,2.247 -0.645,0.553 -1.548,0.829 -2.712,0.829 -1.419,0 -2.564,-0.508 -3.438,-1.524 -0.872,-1.016 -1.308,-2.574 -1.308,-4.672 0,-1.719 0.393,-3.114 1.181,-4.183 0.789,-1.069 1.963,-1.604 3.526,-1.604 1.44,0 2.536,0.562 3.287,1.687 0.399,0.592 0.697,1.372 0.893,2.337 h 1.937 c -0.172,-1.544 -0.737,-2.84 -1.697,-3.884 -1.152,-1.259 -2.705,-1.888 -4.66,-1.888 -1.685,0 -3.099,0.516 -4.245,1.549 -1.506,1.366 -2.26,3.474 -2.26,6.325 0,2.166 0.566,3.94 1.698,5.326 1.224,1.506 2.912,2.258 5.064,2.258 C -2.438,1.467 -1.014,0.979 0,0" /></g><g
           transform="translate(339.2552,166.6036)"
           id="g120"><path
             id="path122"
             style="fill:#ffffff;fill-opacity:1;fill-rule:nonzero;stroke:none"
             d="M 0,0 V -1.748 H -4.944 V -14.67 h -2.007 v 12.922 h -4.944 V 0 Z" /></g><path
           id="path124"
           style="fill:#ffffff;fill-opacity:1;fill-rule:nonzero;stroke:none"
           d="m 341.92,166.604 h 2.007 v -14.67 h -2.007 z" /><g
           transform="translate(357.8723,155.1564)"
           id="g126"><path
             id="path128"
             style="fill:#ffffff;fill-opacity:1;fill-rule:nonzero;stroke:none"
             d="m 0,0 c 0.781,1.255 1.173,2.7 1.173,4.332 0,1.726 -0.451,3.115 -1.353,4.168 -0.902,1.052 -2.136,1.579 -3.701,1.579 -1.517,0 -2.755,-0.522 -3.713,-1.564 -0.959,-1.043 -1.439,-2.58 -1.439,-4.613 0,-1.626 0.411,-2.996 1.233,-4.112 0.822,-1.116 2.155,-1.675 4,-1.675 1.751,0 3.018,0.629 3.8,1.885 M 1.752,9.35 C 2.725,8.052 3.21,6.39 3.21,4.367 3.21,2.177 2.655,0.356 1.542,-1.095 0.238,-2.8 -1.623,-3.652 -4.04,-3.652 c -2.257,0 -4.032,0.745 -5.323,2.237 -1.152,1.438 -1.727,3.256 -1.727,5.453 0,1.983 0.493,3.681 1.478,5.093 1.265,1.81 3.136,2.715 5.612,2.715 2.589,0 4.508,-0.832 5.752,-2.496" /></g><g
           transform="translate(363.838,166.6036)"
           id="g130"><path
             id="path132"
             style="fill:#ffffff;fill-opacity:1;fill-rule:nonzero;stroke:none"
             d="M 0,0 H 2.341 L 9.657,-11.852 V 0 h 1.897 V -14.67 H 9.322 L 1.898,-2.832 V -14.67 H 0 Z" /></g></g></g></g></svg>